<?xml version="1.0" encoding="UTF-8" standalone="no"?>
<!-- Generator: Adobe Illustrator 17.1.0, SVG Export Plug-In . SVG Version: 6.00 Build 0)  -->

<svg
   xmlns:dc="http://purl.org/dc/elements/1.1/"
   xmlns:cc="http://creativecommons.org/ns#"
   xmlns:rdf="http://www.w3.org/1999/02/22-rdf-syntax-ns#"
   xmlns:svg="http://www.w3.org/2000/svg"
   xmlns="http://www.w3.org/2000/svg"
   xmlns:sodipodi="http://sodipodi.sourceforge.net/DTD/sodipodi-0.dtd"
   xmlns:inkscape="http://www.inkscape.org/namespaces/inkscape"
   version="1.0"
   id="Ebene_1"
   x="0px"
   y="0px"
   viewBox="0 0 413 45.1"
   enable-background="new 0 0 413 45.1"
   xml:space="preserve"
   inkscape:version="0.91 r13725"
   sodipodi:docname="claim.mehr-halten.weiss.svg"><metadata
     id="metadata3393"><rdf:RDF><cc:Work
         rdf:about=""><dc:format>image/svg+xml</dc:format><dc:type
           rdf:resource="http://purl.org/dc/dcmitype/StillImage" /></cc:Work></rdf:RDF></metadata><defs
     id="defs3391" /><sodipodi:namedview
     pagecolor="#ffffff"
     bordercolor="#666666"
     borderopacity="1"
     objecttolerance="10"
     gridtolerance="10"
     guidetolerance="10"
     inkscape:pageopacity="0"
     inkscape:pageshadow="2"
     inkscape:window-width="1680"
     inkscape:window-height="988"
     id="namedview3389"
     showgrid="false"
     inkscape:zoom="3.6924939"
     inkscape:cx="206.5"
     inkscape:cy="22.549999"
     inkscape:window-x="-8"
     inkscape:window-y="-8"
     inkscape:window-maximized="1"
     inkscape:current-layer="Ebene_1" /><g
     id="g3337"
     transform="matrix(1.0571761,0,0,1.2068761,-11.403802,-0.63296918)"><path
       d="m 13,30.2 c 2.4,0 3,-0.9 3.4,-3 l 2.8,-13.9 c 0.1,-0.4 0.2,-1 0.2,-1.3 0,-1.4 -1.2,-1.6 -2.4,-1.6 l 0.1,-0.6 6.3,0 2.8,18 0.1,0 9.9,-18 6.2,0 -0.1,0.6 c -2.4,0 -3,0.9 -3.4,3 l -2.8,13.9 c -0.1,0.4 -0.2,1 -0.2,1.3 0,1.4 1.2,1.6 2.4,1.6 l -0.1,0.6 -8.2,0 0.1,-0.6 c 2.3,0 2.9,-0.9 3.4,-3 L 36.6,11.6 36.5,11.5 26,30.9 l -1.6,0 -3,-19.2 -0.1,0 -3.1,15.6 c -0.1,0.4 -0.2,1 -0.2,1.3 0,1.4 1.2,1.6 2.5,1.6 l -0.1,0.6 -7.5,0 0.1,-0.6 z"
       id="path3339"
       inkscape:connector-curvature="0"
       style="fill:#ffffff" /><path
       d="m 51.6,30.4 c -0.7,0.2 -2.3,0.7 -4.3,0.7 -3.1,0 -5.1,-1.8 -5.1,-5.5 0,-4.3 2,-9.7 7.7,-9.7 2.1,0 4,0.9 4,3 0,2.8 -2.6,3 -5,3 l -3.4,0 c -0.2,1 -0.4,2.1 -0.4,3.2 0,2.6 0.9,4.8 4.8,4.8 0.7,0 1.4,-0.1 2.1,-0.4 l -0.4,0.9 z M 48.2,21 c 1.3,0 3.1,-0.3 3.1,-2.3 0,-1 -0.8,-1.7 -2,-1.7 -2.4,0 -3.5,2.6 -3.8,4 l 2.7,0 z"
       id="path3341"
       inkscape:connector-curvature="0"
       style="fill:#ffffff" /><path
       d="m 59.6,12.5 c 0.1,-0.5 0.2,-0.9 0.2,-1.2 0,-1.2 -0.9,-1.5 -2.4,-1.5 l 0.1,-0.5 5.3,-0.5 -3.1,15.6 0.1,0.1 c 1.1,-2.8 4,-8.5 7.1,-8.5 1.2,0 1.9,0.8 1.9,2.1 0,0.3 -0.2,1.2 -0.3,1.7 l -1.8,8 c -0.1,0.3 -0.1,0.7 -0.1,1 0,0.2 0.1,0.5 0.3,0.5 0.6,0 1.9,-1.4 2.8,-2.2 l 0.4,0.3 c -0.9,1 -3.3,3.8 -4.9,3.8 -0.8,0 -1.2,-0.7 -1.2,-1.5 0,-0.6 0.1,-1.3 0.3,-2 L 66,20.1 c 0.1,-0.5 0.2,-1.1 0.2,-1.3 0,-0.5 -0.2,-0.9 -0.7,-0.9 -2.4,0 -6.3,9.4 -7,13 l -2.5,0 3.6,-18.4 z"
       id="path3343"
       inkscape:connector-curvature="0"
       style="fill:#ffffff" /><path
       d="m 75.9,19.4 c 0.1,-0.3 0.1,-0.7 0.1,-1 0,-0.2 -0.1,-0.5 -0.3,-0.5 -0.6,0 -1.9,1.4 -2.8,2.2 l -0.4,-0.3 c 0.9,-1 3.3,-3.8 4.9,-3.8 0.8,0 1.3,0.7 1.3,1.5 0,0.5 -0.1,1.3 -0.3,2 l -0.5,2.3 0.1,0.1 c 0.6,-1.4 2.3,-5.7 4.8,-5.7 1,0 1.5,0.7 1.5,1.5 0,0.9 -0.7,1.6 -1.5,1.6 -0.7,0 -1,-0.5 -1.4,-0.5 -0.9,0 -3.6,3.9 -5.3,12.4 l -2.5,0 2.3,-11.8 z"
       id="path3345"
       inkscape:connector-curvature="0"
       style="fill:#ffffff" /><path
       d="M 99.8,12.5 C 99.9,12 100,11.6 100,11.3 100,10.1 99.1,9.8 97.6,9.8 l 0.1,-0.5 5.3,-0.5 -3.1,15.6 0.1,0.1 c 1.1,-2.8 4,-8.5 7.1,-8.5 1.2,0 1.9,0.8 1.9,2.1 0,0.3 -0.2,1.2 -0.3,1.7 l -1.8,8 c -0.1,0.3 -0.1,0.7 -0.1,1 0,0.2 0.1,0.5 0.3,0.5 0.6,0 1.9,-1.4 2.8,-2.2 l 0.4,0.3 c -0.9,1 -3.3,3.8 -4.9,3.8 -0.8,0 -1.2,-0.7 -1.2,-1.5 0,-0.6 0.1,-1.3 0.3,-2 l 1.7,-7.6 c 0.1,-0.5 0.2,-1.1 0.2,-1.3 0,-0.5 -0.2,-0.9 -0.7,-0.9 -2.4,0 -6.3,9.4 -7,13 l -2.5,0 3.6,-18.4 z"
       id="path3347"
       inkscape:connector-curvature="0"
       style="fill:#ffffff" /><path
       d="m 121.2,26.1 0,0 c -0.8,1.3 -2.6,5 -5.4,5 -2.5,0 -3.1,-2 -3.1,-3.8 0,-3.2 3.1,-11.4 7.7,-11.4 1.7,0 2.2,1 2.4,1.7 l 0.1,0 0.2,-1.4 2.5,0 -2.3,11.5 c -0.1,0.3 -0.1,0.7 -0.1,1 0,0.2 0.1,0.5 0.3,0.5 0.6,0 1.9,-1.4 2.8,-2.2 l 0.4,0.3 c -0.9,1 -3.3,3.8 -4.9,3.8 -0.8,0 -1.3,-0.7 -1.3,-1.5 0,-0.6 0.2,-1.3 0.3,-2 l 0.4,-1.5 z m -4.3,3.5 c 2.5,0 5.6,-6.8 5.6,-10.4 0,-1 -0.3,-2.2 -1.5,-2.2 -3.1,0 -5.4,6.8 -5.4,10.1 -0.1,1.9 0.6,2.5 1.3,2.5 z"
       id="path3349"
       inkscape:connector-curvature="0"
       style="fill:#ffffff" /><path
       d="m 135.6,27.4 c -0.9,1 -3.3,3.8 -4.9,3.8 -0.8,0 -1.3,-0.7 -1.3,-1.5 0,-0.6 0.2,-1.3 0.3,-2 l 3,-15.2 c 0.1,-0.5 0.2,-0.9 0.2,-1.2 0,-1.2 -0.9,-1.5 -2.4,-1.5 l 0.1,-0.5 5.3,-0.5 -3.8,18.9 c -0.1,0.3 -0.1,0.7 -0.1,1 0,0.2 0.1,0.5 0.3,0.5 0.6,0 1.9,-1.4 2.8,-2.2 l 0.5,0.4 z"
       id="path3351"
       inkscape:connector-curvature="0"
       style="fill:#ffffff" /><path
       d="m 145.1,27.4 c -1,1 -3.4,3.8 -5.1,3.8 -0.9,0 -1.4,-0.7 -1.4,-1.5 0,-0.6 0.1,-1.3 0.3,-2 l 2.1,-10.5 -2.6,0 0.2,-1 c 2.9,0 4.4,-1.5 5.2,-4.7 l 0.8,0 -1,4.7 4.2,0 -0.2,1 -4.2,0 -2.1,10.5 c -0.1,0.3 -0.2,0.7 -0.2,1 0,0.2 0.2,0.5 0.5,0.5 0.7,0 2.1,-1.3 3,-2.2 l 0.5,0.4 z"
       id="path3353"
       inkscape:connector-curvature="0"
       style="fill:#ffffff" /><path
       d="m 157.8,30.4 c -0.7,0.2 -2.3,0.7 -4.3,0.7 -3.1,0 -5.1,-1.8 -5.1,-5.5 0,-4.3 2,-9.7 7.7,-9.7 2.1,0 4,0.9 4,3 0,2.8 -2.6,3 -5,3 l -3.4,0 c -0.2,1 -0.4,2.1 -0.4,3.2 0,2.6 0.9,4.8 4.8,4.8 0.7,0 1.4,-0.1 2.1,-0.4 l -0.4,0.9 z M 154.4,21 c 1.3,0 3.1,-0.3 3.1,-2.3 0,-1 -0.8,-1.7 -2,-1.7 -2.4,0 -3.5,2.6 -3.8,4 l 2.7,0 z"
       id="path3355"
       inkscape:connector-curvature="0"
       style="fill:#ffffff" /><path
       d="m 164.8,19.4 c 0.1,-0.3 0.1,-0.7 0.1,-1 0,-0.2 -0.2,-0.5 -0.3,-0.5 -0.6,0 -2,1.4 -2.8,2.2 l -0.4,-0.3 c 0.9,-1 3.3,-3.8 4.9,-3.8 0.8,0 1.2,0.7 1.2,1.5 0,0.5 -0.1,1.3 -0.3,2 l -1,5 0.1,0.1 c 1.1,-2.8 4,-8.5 7.2,-8.5 1.1,0 1.8,0.8 1.8,2.1 0,0.3 -0.1,1.2 -0.3,1.7 l -1.8,8 c -0.1,0.3 -0.2,0.7 -0.2,1 0,0.2 0.2,0.5 0.3,0.5 0.6,0 2,-1.4 2.8,-2.2 l 0.4,0.3 c -0.9,1 -3.3,3.8 -4.9,3.8 -0.8,0 -1.3,-0.7 -1.3,-1.5 0,-0.6 0.1,-1.3 0.3,-2 l 1.7,-7.6 c 0.1,-0.5 0.2,-1.1 0.2,-1.3 0,-0.5 -0.3,-0.9 -0.7,-0.9 -2.5,0 -6.4,9.4 -7,13 l -2.5,0 2.5,-11.6 z"
       id="path3357"
       inkscape:connector-curvature="0"
       style="fill:#ffffff" /><path
       d="m 198.3,26.1 0,0 c -0.8,1.3 -2.6,5 -5.4,5 -2.5,0 -3.1,-2 -3.1,-3.8 0,-3.2 3.1,-11.4 7.7,-11.4 1.7,0 2.2,1 2.4,1.7 l 0.1,0 0.2,-1.4 2.5,0 -2.3,11.5 c -0.1,0.3 -0.1,0.7 -0.1,1 0,0.2 0.1,0.5 0.3,0.5 0.6,0 1.9,-1.4 2.8,-2.2 l 0.4,0.3 c -0.9,1 -3.3,3.8 -4.9,3.8 -0.8,0 -1.3,-0.7 -1.3,-1.5 0,-0.6 0.2,-1.3 0.3,-2 l 0.4,-1.5 z m -4.3,3.5 c 2.5,0 5.6,-6.8 5.6,-10.4 0,-1 -0.3,-2.2 -1.5,-2.2 -3.1,0 -5.4,6.8 -5.4,10.1 -0.1,1.9 0.6,2.5 1.3,2.5 z"
       id="path3359"
       inkscape:connector-curvature="0"
       style="fill:#ffffff" /><path
       d="m 212.7,27.4 c -0.9,1 -3.3,3.8 -4.9,3.8 -0.8,0 -1.3,-0.7 -1.3,-1.5 0,-0.6 0.2,-1.3 0.3,-2 l 3,-15.2 c 0.1,-0.5 0.2,-0.9 0.2,-1.2 0,-1.2 -0.9,-1.5 -2.4,-1.5 l 0.1,-0.5 5.3,-0.5 -3.8,18.9 c -0.1,0.3 -0.1,0.7 -0.1,1 0,0.2 0.1,0.5 0.3,0.5 0.6,0 1.9,-1.4 2.8,-2.2 l 0.5,0.4 z"
       id="path3361"
       inkscape:connector-curvature="0"
       style="fill:#ffffff" /><path
       d="m 224.4,19.9 c 0,-1.5 -0.9,-2.9 -2.8,-2.9 -1.2,0 -2.5,0.7 -2.5,2.3 0,2.9 5.5,2.9 5.5,7 0,3.4 -3,4.9 -6.6,4.9 -1.8,0 -3,-0.4 -3.6,-0.6 l 0.4,-3.5 0.7,0 c 0.1,1.3 0.4,3 2.9,3 1.7,0 3.5,-1.1 3.5,-2.9 0,-3 -5.5,-3 -5.5,-6.8 0,-3 2.7,-4.4 5.6,-4.4 1.6,0 2.8,0.3 3.5,0.6 l -0.5,3.3 -0.6,0 z"
       id="path3363"
       inkscape:connector-curvature="0"
       style="fill:#ffffff" /><path
       d="m 243,28 c -0.1,0.4 -0.2,0.9 -0.2,1.2 0,0.3 0.1,0.5 0.4,0.5 1.5,0 6.7,-4.9 6.7,-9.2 0,-1.6 -0.9,-2.1 -0.9,-3.1 0,-0.8 0.6,-1.5 1.5,-1.5 1.2,0 1.5,1.2 1.5,2 0,5.8 -6.4,13.2 -10.6,13.2 -0.6,0 -1.1,-0.3 -1.1,-1.2 0,-0.4 0.1,-1 0.2,-1.5 l 1.8,-9.1 c 0.1,-0.3 0.1,-0.7 0.1,-1 0,-0.2 -0.1,-0.5 -0.3,-0.5 -0.6,0 -1.9,1.4 -2.8,2.2 l -0.4,-0.3 c 1.1,-1.2 3.2,-3.8 4.7,-3.8 0.9,0 1.4,0.8 1.4,1.8 0,0.4 -0.3,1.6 -0.4,2.3 l -1.6,8 z"
       id="path3365"
       inkscape:connector-curvature="0"
       style="fill:#ffffff" /><path
       d="m 263.8,30.4 c -0.7,0.2 -2.3,0.7 -4.3,0.7 -3.1,0 -5.1,-1.8 -5.1,-5.5 0,-4.3 2,-9.7 7.7,-9.7 2.1,0 4,0.9 4,3 0,2.8 -2.6,3 -5,3 l -3.4,0 c -0.2,1 -0.4,2.1 -0.4,3.2 0,2.6 0.9,4.8 4.8,4.8 0.7,0 1.4,-0.1 2.1,-0.4 l -0.4,0.9 z M 260.4,21 c 1.3,0 3.1,-0.3 3.1,-2.3 0,-1 -0.8,-1.7 -2,-1.7 -2.4,0 -3.5,2.6 -3.8,4 l 2.7,0 z"
       id="path3367"
       inkscape:connector-curvature="0"
       style="fill:#ffffff" /><path
       d="m 271,19.4 c 0.1,-0.3 0.1,-0.7 0.1,-1 0,-0.2 -0.1,-0.5 -0.3,-0.5 -0.6,0 -1.9,1.4 -2.8,2.2 l -0.4,-0.3 c 0.9,-1 3.3,-3.8 4.9,-3.8 0.8,0 1.3,0.7 1.3,1.5 0,0.5 -0.1,1.3 -0.3,2 l -0.5,2.3 0.1,0.1 c 0.6,-1.4 2.3,-5.7 4.8,-5.7 1,0 1.5,0.7 1.5,1.5 0,0.9 -0.7,1.6 -1.5,1.6 -0.7,0 -1,-0.5 -1.4,-0.5 -0.9,0 -3.6,3.9 -5.3,12.4 l -2.5,0 2.3,-11.8 z"
       id="path3369"
       inkscape:connector-curvature="0"
       style="fill:#ffffff" /><path
       d="m 288.9,19.9 c 0,-1.5 -0.9,-2.9 -2.8,-2.9 -1.2,0 -2.5,0.7 -2.5,2.3 0,2.9 5.5,2.9 5.5,7 0,3.4 -3,4.9 -6.6,4.9 -1.8,0 -3,-0.4 -3.6,-0.6 l 0.4,-3.5 0.7,0 c 0.1,1.3 0.4,3 2.9,3 1.7,0 3.5,-1.1 3.5,-2.9 0,-3 -5.5,-3 -5.5,-6.8 0,-3 2.7,-4.4 5.6,-4.4 1.6,0 2.8,0.3 3.5,0.6 l -0.5,3.3 -0.6,0 z"
       id="path3371"
       inkscape:connector-curvature="0"
       style="fill:#ffffff" /><path
       d="m 289.9,37 c 2.4,0 3,-0.9 3.4,-3.1 l 2.9,-14.6 c 0.1,-0.3 0.1,-0.7 0.1,-1 0,-0.2 -0.1,-0.5 -0.3,-0.5 -0.6,0 -1.9,1.4 -2.8,2.2 l -0.4,-0.3 c 0.9,-1 3.3,-3.8 4.9,-3.8 0.8,0 1.3,0.7 1.3,1.5 0,0.5 -0.2,1.3 -0.3,2 l -0.3,1.4 0.1,0.1 c 0.5,-1 2.8,-4.9 5.6,-4.9 1.7,0 3,1.2 3,3.6 0,3.9 -3.3,11.6 -7.9,11.6 -1.6,0 -2.2,-0.6 -2.5,-1.4 l -0.1,0 -0.8,4.2 c -0.1,0.3 -0.2,1 -0.2,1.3 0,1.6 1.2,1.8 2.4,1.8 l -0.1,0.5 -8.1,0 0.1,-0.6 z m 8.8,-6.9 c 3.1,0 5.5,-6.4 5.5,-10.3 0,-1 -0.4,-2.2 -1.4,-2.2 -2.5,0 -5.8,7 -5.8,10.5 0,1 0.4,2 1.7,2 z"
       id="path3373"
       inkscape:connector-curvature="0"
       style="fill:#ffffff" /><path
       d="m 313.1,19.4 c 0.1,-0.3 0.1,-0.7 0.1,-1 0,-0.2 -0.1,-0.5 -0.3,-0.5 -0.6,0 -1.9,1.4 -2.8,2.2 l -0.4,-0.3 c 0.9,-1 3.3,-3.8 4.9,-3.8 0.8,0 1.3,0.7 1.3,1.5 0,0.5 -0.1,1.3 -0.3,2 l -0.5,2.3 0.1,0.1 c 0.6,-1.4 2.3,-5.7 4.8,-5.7 1,0 1.5,0.7 1.5,1.5 0,0.9 -0.7,1.6 -1.5,1.6 -0.7,0 -1,-0.5 -1.4,-0.5 -0.9,0 -3.6,3.9 -5.3,12.4 l -2.5,0 2.3,-11.8 z"
       id="path3375"
       inkscape:connector-curvature="0"
       style="fill:#ffffff" /><path
       d="m 331.4,30.4 c -0.7,0.2 -2.3,0.7 -4.3,0.7 -3.1,0 -5.1,-1.8 -5.1,-5.5 0,-4.3 2,-9.7 7.7,-9.7 2.1,0 4,0.9 4,3 0,2.8 -2.6,3 -5,3 l -3.4,0 c -0.2,1 -0.4,2.1 -0.4,3.2 0,2.6 0.9,4.8 4.8,4.8 0.7,0 1.4,-0.1 2.1,-0.4 l -0.4,0.9 z M 328.1,21 c 1.3,0 3.1,-0.3 3.1,-2.3 0,-1 -0.8,-1.7 -2,-1.7 -2.4,0 -3.5,2.6 -3.8,4 l 2.7,0 z"
       id="path3377"
       inkscape:connector-curvature="0"
       style="fill:#ffffff" /><path
       d="m 345,30.4 c -0.5,0.2 -2.1,0.8 -4.1,0.8 -3.3,0 -5.5,-1.9 -5.5,-5.4 0,-4.5 2.4,-9.8 7.7,-9.8 2.4,0 4.3,1.5 4.3,3.2 0,0.8 -0.6,1.6 -1.6,1.6 -2.6,0 -0.5,-3.7 -3.1,-3.7 -2.9,0 -4.5,4.7 -4.5,8 0,3.8 1.9,4.9 4.7,4.9 0.8,0 1.6,-0.2 2.3,-0.4 l -0.2,0.8 z"
       id="path3379"
       inkscape:connector-curvature="0"
       style="fill:#ffffff" /><path
       d="m 353.1,12.5 c 0.1,-0.5 0.2,-0.9 0.2,-1.2 0,-1.2 -0.9,-1.5 -2.4,-1.5 l 0.1,-0.5 5.3,-0.5 -3.1,15.6 0.1,0.1 c 1.1,-2.8 4,-8.5 7.1,-8.5 1.2,0 1.9,0.8 1.9,2.1 0,0.3 -0.2,1.2 -0.3,1.7 l -1.8,8 c -0.1,0.3 -0.1,0.7 -0.1,1 0,0.2 0.1,0.5 0.3,0.5 0.6,0 1.9,-1.4 2.8,-2.2 l 0.4,0.3 c -0.9,1 -3.3,3.8 -4.9,3.8 -0.8,0 -1.2,-0.7 -1.2,-1.5 0,-0.6 0.1,-1.3 0.3,-2 l 1.7,-7.6 c 0.1,-0.5 0.2,-1.1 0.2,-1.3 0,-0.5 -0.2,-0.9 -0.7,-0.9 -2.4,0 -6.3,9.4 -7,13 l -2.5,0 3.6,-18.4 z"
       id="path3381"
       inkscape:connector-curvature="0"
       style="fill:#ffffff" /><path
       d="m 376,30.4 c -0.7,0.2 -2.3,0.7 -4.3,0.7 -3.1,0 -5.1,-1.8 -5.1,-5.5 0,-4.3 2,-9.7 7.7,-9.7 2.1,0 4,0.9 4,3 0,2.8 -2.6,3 -5,3 l -3.4,0 c -0.2,1 -0.4,2.1 -0.4,3.2 0,2.6 0.9,4.8 4.8,4.8 0.7,0 1.4,-0.1 2.1,-0.4 L 376,30.4 Z M 372.6,21 c 1.3,0 3.1,-0.3 3.1,-2.3 0,-1 -0.8,-1.7 -2,-1.7 -2.4,0 -3.5,2.6 -3.8,4 l 2.7,0 z"
       id="path3383"
       inkscape:connector-curvature="0"
       style="fill:#ffffff" /><path
       d="m 383,19.4 c 0.1,-0.3 0.1,-0.7 0.1,-1 0,-0.2 -0.2,-0.5 -0.3,-0.5 -0.6,0 -2,1.4 -2.8,2.2 l -0.4,-0.3 c 0.9,-1 3.3,-3.8 4.9,-3.8 0.8,0 1.2,0.7 1.2,1.5 0,0.5 -0.1,1.3 -0.3,2 l -1,5 0.1,0.1 c 1.1,-2.8 4,-8.5 7.2,-8.5 1.1,0 1.8,0.8 1.8,2.1 0,0.3 -0.1,1.2 -0.3,1.7 l -1.8,8 c -0.1,0.3 -0.2,0.7 -0.2,1 0,0.2 0.2,0.5 0.3,0.5 0.6,0 2,-1.4 2.8,-2.2 l 0.4,0.3 c -0.9,1 -3.3,3.8 -4.9,3.8 -0.8,0 -1.3,-0.7 -1.3,-1.5 0,-0.6 0.1,-1.3 0.3,-2 l 1.7,-7.6 c 0.1,-0.5 0.2,-1.1 0.2,-1.3 0,-0.5 -0.3,-0.9 -0.7,-0.9 -2.5,0 -6.4,9.4 -7,13 l -2.5,0 2.5,-11.6 z"
       id="path3385"
       inkscape:connector-curvature="0"
       style="fill:#ffffff" /><path
       d="m 397.3,29.1 c 0,-1.1 0.9,-2 2,-2 1.1,0 2,0.9 2,2 0,1.1 -0.9,2 -2,2 -1.1,0.1 -2,-0.8 -2,-2 z"
       id="path3387"
       inkscape:connector-curvature="0"
       style="fill:#ffffff" /></g></svg>
