<svg version="1" xmlns="http://www.w3.org/2000/svg" viewBox="0 0 413 45.1" enable-background="new 0 0 413 45.1"><g fill="#fff" fill-opacity=".4"><path d="M13 30.2c2.4 0 3-.9 3.4-3l2.8-13.9c.1-.4.2-1 .2-1.3 0-1.4-1.2-1.6-2.4-1.6l.1-.6h6.3l2.8 18h.1l9.9-18h6.2l-.1.6c-2.4 0-3 .9-3.4 3l-2.8 13.9c-.1.4-.2 1-.2 1.3 0 1.4 1.2 1.6 2.4 1.6l-.1.6h-8.2l.1-.6c2.3 0 2.9-.9 3.4-3l3.1-15.6-.1-.1-10.5 19.4h-1.6l-3-19.2h-.1l-3.1 15.6c-.1.4-.2 1-.2 1.3 0 1.4 1.2 1.6 2.5 1.6l-.1.6h-7.5l.1-.6zM51.6 30.4c-.7.2-2.3.7-4.3.7-3.1 0-5.1-1.8-5.1-5.5 0-4.3 2-9.7 7.7-9.7 2.1 0 4 .9 4 3 0 2.8-2.6 3-5 3h-3.4c-.2 1-.4 2.1-.4 3.2 0 2.6.9 4.8 4.8 4.8.7 0 1.4-.1 2.1-.4l-.4.9zm-3.4-9.4c1.3 0 3.1-.3 3.1-2.3 0-1-.8-1.7-2-1.7-2.4 0-3.5 2.6-3.8 4h2.7zM59.6 12.5c.1-.5.2-.9.2-1.2 0-1.2-.9-1.5-2.4-1.5l.1-.5 5.3-.5-3.1 15.6.1.1c1.1-2.8 4-8.5 7.1-8.5 1.2 0 1.9.8 1.9 2.1 0 .3-.2 1.2-.3 1.7l-1.8 8c-.1.3-.1.7-.1 1 0 .2.1.5.3.5.6 0 1.9-1.4 2.8-2.2l.4.3c-.9 1-3.3 3.8-4.9 3.8-.8 0-1.2-.7-1.2-1.5 0-.6.1-1.3.3-2l1.7-7.6c.1-.5.2-1.1.2-1.3 0-.5-.2-.9-.7-.9-2.4 0-6.3 9.4-7 13h-2.5l3.6-18.4zM75.9 19.4c.1-.3.1-.7.1-1 0-.2-.1-.5-.3-.5-.6 0-1.9 1.4-2.8 2.2l-.4-.3c.9-1 3.3-3.8 4.9-3.8.8 0 1.3.7 1.3 1.5 0 .5-.1 1.3-.3 2l-.5 2.3.1.1c.6-1.4 2.3-5.7 4.8-5.7 1 0 1.5.7 1.5 1.5 0 .9-.7 1.6-1.5 1.6-.7 0-1-.5-1.4-.5-.9 0-3.6 3.9-5.3 12.4h-2.5l2.3-11.8zM99.8 12.5c.1-.5.2-.9.2-1.2 0-1.2-.9-1.5-2.4-1.5l.1-.5 5.3-.5-3.1 15.6.1.1c1.1-2.8 4-8.5 7.1-8.5 1.2 0 1.9.8 1.9 2.1 0 .3-.2 1.2-.3 1.7l-1.8 8c-.1.3-.1.7-.1 1 0 .2.1.5.3.5.6 0 1.9-1.4 2.8-2.2l.4.3c-.9 1-3.3 3.8-4.9 3.8-.8 0-1.2-.7-1.2-1.5 0-.6.1-1.3.3-2l1.7-7.6c.1-.5.2-1.1.2-1.3 0-.5-.2-.9-.7-.9-2.4 0-6.3 9.4-7 13h-2.5l3.6-18.4zM121.2 26.1c-.8 1.3-2.6 5-5.4 5-2.5 0-3.1-2-3.1-3.8 0-3.2 3.1-11.4 7.7-11.4 1.7 0 2.2 1 2.4 1.7h.1l.2-1.4h2.5l-2.3 11.5c-.1.3-.1.7-.1 1 0 .2.1.5.3.5.6 0 1.9-1.4 2.8-2.2l.4.3c-.9 1-3.3 3.8-4.9 3.8-.8 0-1.3-.7-1.3-1.5 0-.6.2-1.3.3-2l.4-1.5zm-4.3 3.5c2.5 0 5.6-6.8 5.6-10.4 0-1-.3-2.2-1.5-2.2-3.1 0-5.4 6.8-5.4 10.1-.1 1.9.6 2.5 1.3 2.5zM135.6 27.4c-.9 1-3.3 3.8-4.9 3.8-.8 0-1.3-.7-1.3-1.5 0-.6.2-1.3.3-2l3-15.2c.1-.5.2-.9.2-1.2 0-1.2-.9-1.5-2.4-1.5l.1-.5 5.3-.5-3.8 18.9c-.1.3-.1.7-.1 1 0 .2.1.5.3.5.6 0 1.9-1.4 2.8-2.2l.5.4zM145.1 27.4c-1 1-3.4 3.8-5.1 3.8-.9 0-1.4-.7-1.4-1.5 0-.6.1-1.3.3-2l2.1-10.5h-2.6l.2-1c2.9 0 4.4-1.5 5.2-4.7h.8l-1 4.7h4.2l-.2 1h-4.2l-2.1 10.5c-.1.3-.2.7-.2 1 0 .2.2.5.5.5.7 0 2.1-1.3 3-2.2l.5.4zM157.8 30.4c-.7.2-2.3.7-4.3.7-3.1 0-5.1-1.8-5.1-5.5 0-4.3 2-9.7 7.7-9.7 2.1 0 4 .9 4 3 0 2.8-2.6 3-5 3h-3.4c-.2 1-.4 2.1-.4 3.2 0 2.6.9 4.8 4.8 4.8.7 0 1.4-.1 2.1-.4l-.4.9zm-3.4-9.4c1.3 0 3.1-.3 3.1-2.3 0-1-.8-1.7-2-1.7-2.4 0-3.5 2.6-3.8 4h2.7zM164.8 19.4c.1-.3.1-.7.1-1 0-.2-.2-.5-.3-.5-.6 0-2 1.4-2.8 2.2l-.4-.3c.9-1 3.3-3.8 4.9-3.8.8 0 1.2.7 1.2 1.5 0 .5-.1 1.3-.3 2l-1 5 .1.1c1.1-2.8 4-8.5 7.2-8.5 1.1 0 1.8.8 1.8 2.1 0 .3-.1 1.2-.3 1.7l-1.8 8c-.1.3-.2.7-.2 1 0 .2.2.5.3.5.6 0 2-1.4 2.8-2.2l.4.3c-.9 1-3.3 3.8-4.9 3.8-.8 0-1.3-.7-1.3-1.5 0-.6.1-1.3.3-2l1.7-7.6c.1-.5.2-1.1.2-1.3 0-.5-.3-.9-.7-.9-2.5 0-6.4 9.4-7 13h-2.5l2.5-11.6zM198.3 26.1c-.8 1.3-2.6 5-5.4 5-2.5 0-3.1-2-3.1-3.8 0-3.2 3.1-11.4 7.7-11.4 1.7 0 2.2 1 2.4 1.7h.1l.2-1.4h2.5l-2.3 11.5c-.1.3-.1.7-.1 1 0 .2.1.5.3.5.6 0 1.9-1.4 2.8-2.2l.4.3c-.9 1-3.3 3.8-4.9 3.8-.8 0-1.3-.7-1.3-1.5 0-.6.2-1.3.3-2l.4-1.5zm-4.3 3.5c2.5 0 5.6-6.8 5.6-10.4 0-1-.3-2.2-1.5-2.2-3.1 0-5.4 6.8-5.4 10.1-.1 1.9.6 2.5 1.3 2.5zM212.7 27.4c-.9 1-3.3 3.8-4.9 3.8-.8 0-1.3-.7-1.3-1.5 0-.6.2-1.3.3-2l3-15.2c.1-.5.2-.9.2-1.2 0-1.2-.9-1.5-2.4-1.5l.1-.5 5.3-.5-3.8 18.9c-.1.3-.1.7-.1 1 0 .2.1.5.3.5.6 0 1.9-1.4 2.8-2.2l.5.4zM224.4 19.9c0-1.5-.9-2.9-2.8-2.9-1.2 0-2.5.7-2.5 2.3 0 2.9 5.5 2.9 5.5 7 0 3.4-3 4.9-6.6 4.9-1.8 0-3-.4-3.6-.6l.4-3.5h.7c.1 1.3.4 3 2.9 3 1.7 0 3.5-1.1 3.5-2.9 0-3-5.5-3-5.5-6.8 0-3 2.7-4.4 5.6-4.4 1.6 0 2.8.3 3.5.6l-.5 3.3h-.6zM243 28c-.1.4-.2.9-.2 1.2s.1.5.4.5c1.5 0 6.7-4.9 6.7-9.2 0-1.6-.9-2.1-.9-3.1 0-.8.6-1.5 1.5-1.5 1.2 0 1.5 1.2 1.5 2 0 5.8-6.4 13.2-10.6 13.2-.6 0-1.1-.3-1.1-1.2 0-.4.1-1 .2-1.5l1.8-9.1c.1-.3.1-.7.1-1 0-.2-.1-.5-.3-.5-.6 0-1.9 1.4-2.8 2.2l-.4-.3c1.1-1.2 3.2-3.8 4.7-3.8.9 0 1.4.8 1.4 1.8 0 .4-.3 1.6-.4 2.3l-1.6 8zM263.8 30.4c-.7.2-2.3.7-4.3.7-3.1 0-5.1-1.8-5.1-5.5 0-4.3 2-9.7 7.7-9.7 2.1 0 4 .9 4 3 0 2.8-2.6 3-5 3h-3.4c-.2 1-.4 2.1-.4 3.2 0 2.6.9 4.8 4.8 4.8.7 0 1.4-.1 2.1-.4l-.4.9zm-3.4-9.4c1.3 0 3.1-.3 3.1-2.3 0-1-.8-1.7-2-1.7-2.4 0-3.5 2.6-3.8 4h2.7zM271 19.4c.1-.3.1-.7.1-1 0-.2-.1-.5-.3-.5-.6 0-1.9 1.4-2.8 2.2l-.4-.3c.9-1 3.3-3.8 4.9-3.8.8 0 1.3.7 1.3 1.5 0 .5-.1 1.3-.3 2l-.5 2.3.1.1c.6-1.4 2.3-5.7 4.8-5.7 1 0 1.5.7 1.5 1.5 0 .9-.7 1.6-1.5 1.6-.7 0-1-.5-1.4-.5-.9 0-3.6 3.9-5.3 12.4h-2.5l2.3-11.8zM288.9 19.9c0-1.5-.9-2.9-2.8-2.9-1.2 0-2.5.7-2.5 2.3 0 2.9 5.5 2.9 5.5 7 0 3.4-3 4.9-6.6 4.9-1.8 0-3-.4-3.6-.6l.4-3.5h.7c.1 1.3.4 3 2.9 3 1.7 0 3.5-1.1 3.5-2.9 0-3-5.5-3-5.5-6.8 0-3 2.7-4.4 5.6-4.4 1.6 0 2.8.3 3.5.6l-.5 3.3h-.6zM289.9 37c2.4 0 3-.9 3.4-3.1l2.9-14.6c.1-.3.1-.7.1-1 0-.2-.1-.5-.3-.5-.6 0-1.9 1.4-2.8 2.2l-.4-.3c.9-1 3.3-3.8 4.9-3.8.8 0 1.3.7 1.3 1.5 0 .5-.2 1.3-.3 2l-.3 1.4.1.1c.5-1 2.8-4.9 5.6-4.9 1.7 0 3 1.2 3 3.6 0 3.9-3.3 11.6-7.9 11.6-1.6 0-2.2-.6-2.5-1.4h-.1l-.8 4.2c-.1.3-.2 1-.2 1.3 0 1.6 1.2 1.8 2.4 1.8l-.1.5h-8.1l.1-.6zm8.8-6.9c3.1 0 5.5-6.4 5.5-10.3 0-1-.4-2.2-1.4-2.2-2.5 0-5.8 7-5.8 10.5 0 1 .4 2 1.7 2zM313.1 19.4c.1-.3.1-.7.1-1 0-.2-.1-.5-.3-.5-.6 0-1.9 1.4-2.8 2.2l-.4-.3c.9-1 3.3-3.8 4.9-3.8.8 0 1.3.7 1.3 1.5 0 .5-.1 1.3-.3 2l-.5 2.3.1.1c.6-1.4 2.3-5.7 4.8-5.7 1 0 1.5.7 1.5 1.5 0 .9-.7 1.6-1.5 1.6-.7 0-1-.5-1.4-.5-.9 0-3.6 3.9-5.3 12.4h-2.5l2.3-11.8zM331.4 30.4c-.7.2-2.3.7-4.3.7-3.1 0-5.1-1.8-5.1-5.5 0-4.3 2-9.7 7.7-9.7 2.1 0 4 .9 4 3 0 2.8-2.6 3-5 3h-3.4c-.2 1-.4 2.1-.4 3.2 0 2.6.9 4.8 4.8 4.8.7 0 1.4-.1 2.1-.4l-.4.9zm-3.3-9.4c1.3 0 3.1-.3 3.1-2.3 0-1-.8-1.7-2-1.7-2.4 0-3.5 2.6-3.8 4h2.7zM345 30.4c-.5.2-2.1.8-4.1.8-3.3 0-5.5-1.9-5.5-5.4 0-4.5 2.4-9.8 7.7-9.8 2.4 0 4.3 1.5 4.3 3.2 0 .8-.6 1.6-1.6 1.6l-3.1-3.7c-2.9 0-4.5 4.7-4.5 8 0 3.8 1.9 4.9 4.7 4.9.8 0 1.6-.2 2.3-.4l-.2.8zM353.1 12.5c.1-.5.2-.9.2-1.2 0-1.2-.9-1.5-2.4-1.5l.1-.5 5.3-.5-3.1 15.6.1.1c1.1-2.8 4-8.5 7.1-8.5 1.2 0 1.9.8 1.9 2.1 0 .3-.2 1.2-.3 1.7l-1.8 8c-.1.3-.1.7-.1 1 0 .2.1.5.3.5.6 0 1.9-1.4 2.8-2.2l.4.3c-.9 1-3.3 3.8-4.9 3.8-.8 0-1.2-.7-1.2-1.5 0-.6.1-1.3.3-2l1.7-7.6c.1-.5.2-1.1.2-1.3 0-.5-.2-.9-.7-.9-2.4 0-6.3 9.4-7 13h-2.5l3.6-18.4zM376 30.4c-.7.2-2.3.7-4.3.7-3.1 0-5.1-1.8-5.1-5.5 0-4.3 2-9.7 7.7-9.7 2.1 0 4 .9 4 3 0 2.8-2.6 3-5 3h-3.4c-.2 1-.4 2.1-.4 3.2 0 2.6.9 4.8 4.8 4.8.7 0 1.4-.1 2.1-.4l-.4.9zm-3.4-9.4c1.3 0 3.1-.3 3.1-2.3 0-1-.8-1.7-2-1.7-2.4 0-3.5 2.6-3.8 4h2.7zM383 19.4c.1-.3.1-.7.1-1 0-.2-.2-.5-.3-.5-.6 0-2 1.4-2.8 2.2l-.4-.3c.9-1 3.3-3.8 4.9-3.8.8 0 1.2.7 1.2 1.5 0 .5-.1 1.3-.3 2l-1 5 .1.1c1.1-2.8 4-8.5 7.2-8.5 1.1 0 1.8.8 1.8 2.1 0 .3-.1 1.2-.3 1.7l-1.8 8c-.1.3-.2.7-.2 1 0 .2.2.5.3.5.6 0 2-1.4 2.8-2.2l.4.3c-.9 1-3.3 3.8-4.9 3.8-.8 0-1.3-.7-1.3-1.5 0-.6.1-1.3.3-2l1.7-7.6c.1-.5.2-1.1.2-1.3 0-.5-.3-.9-.7-.9-2.5 0-6.4 9.4-7 13h-2.5l2.5-11.6zM397.3 29.1c0-1.1.9-2 2-2s2 .9 2 2-.9 2-2 2c-1.1.1-2-.8-2-2z"/></g></svg>