<svg xmlns="http://www.w3.org/2000/svg" version="1" viewBox="0 0 413 45.1" enable-background="new 0 0 413 45.1"><g fill="#fff"><path d="M2.339 35.815c2.537 0 3.172-1.086 3.594-3.621l2.96-16.776c.106-.483.211-1.207.211-1.569 0-1.69-1.269-1.931-2.537-1.931l.106-.724h6.66l2.96 21.724h.106l10.466-21.724h6.554l-.106.724c-2.537 0-3.172 1.086-3.594 3.621l-2.96 16.776c-.106.483-.211 1.207-.211 1.569 0 1.69 1.269 1.931 2.537 1.931l-.106.724h-8.669l.106-.724c2.432 0 3.066-1.086 3.594-3.621l3.277-18.827-.106-.121-11.1 23.413h-1.691l-3.172-23.172h-.106l-3.277 18.827c-.106.483-.211 1.207-.211 1.569 0 1.69 1.269 1.931 2.643 1.931l-.106.724h-7.929l.106-.724z"/><path d="M43.146 36.056c-.74.241-2.432.845-4.546.845-3.277 0-5.392-2.172-5.392-6.638 0-5.19 2.114-11.707 8.14-11.707 2.22 0 4.229 1.086 4.229 3.621 0 3.379-2.749 3.621-5.286 3.621h-3.594c-.211 1.207-.423 2.534-.423 3.862 0 3.138.951 5.793 5.074 5.793.74 0 1.48-.121 2.22-.483l-.423 1.086zm-3.594-11.345c1.374 0 3.277-.362 3.277-2.776 0-1.207-.846-2.052-2.114-2.052-2.537 0-3.7 3.138-4.017 4.828h2.854z"/><path d="M51.604 14.453c.106-.603.211-1.086.211-1.448 0-1.448-.951-1.81-2.537-1.81l.106-.603 5.603-.603-3.277 18.827.106.121c1.163-3.379 4.229-10.258 7.506-10.258 1.269 0 2.009.966 2.009 2.534 0 .362-.211 1.448-.317 2.052l-1.903 9.655c-.106.362-.106.845-.106 1.207 0 .241.106.603.317.603.634 0 2.009-1.69 2.96-2.655l.423.362c-.951 1.207-3.489 4.586-5.18 4.586-.846 0-1.269-.845-1.269-1.81 0-.724.106-1.569.317-2.414l1.797-9.172c.106-.603.211-1.328.211-1.569 0-.603-.211-1.086-.74-1.086-2.537 0-6.66 11.345-7.4 15.689h-2.643l3.806-22.207z"/><path d="M68.836 22.78c.106-.362.106-.845.106-1.207 0-.241-.106-.603-.317-.603-.634 0-2.009 1.69-2.96 2.655l-.423-.362c.951-1.207 3.489-4.586 5.18-4.586.846 0 1.374.845 1.374 1.81 0 .603-.106 1.569-.317 2.414l-.529 2.776.106.121c.634-1.69 2.432-6.879 5.074-6.879 1.057 0 1.586.845 1.586 1.81 0 1.086-.74 1.931-1.586 1.931-.74 0-1.057-.603-1.48-.603-.951 0-3.806 4.707-5.603 14.965h-2.643l2.432-14.241z"/><path d="M94.102 14.453c.106-.603.211-1.086.211-1.448 0-1.448-.951-1.81-2.537-1.81l.106-.603 5.603-.603-3.277 18.827.106.121c1.163-3.379 4.229-10.258 7.506-10.258 1.269 0 2.009.966 2.009 2.534 0 .362-.211 1.448-.317 2.052l-1.903 9.655c-.106.362-.106.845-.106 1.207 0 .241.106.603.317.603.634 0 2.009-1.69 2.96-2.655l.423.362c-.951 1.207-3.489 4.586-5.18 4.586-.846 0-1.269-.845-1.269-1.81 0-.724.106-1.569.317-2.414l1.797-9.172c.106-.603.211-1.328.211-1.569 0-.603-.211-1.086-.74-1.086-2.537 0-6.66 11.345-7.4 15.689h-2.643l3.806-22.207z"/><path d="M116.726 30.866c-.846 1.569-2.749 6.034-5.709 6.034-2.643 0-3.277-2.414-3.277-4.586 0-3.862 3.277-13.758 8.14-13.758 1.797 0 2.326 1.207 2.537 2.052h.106l.211-1.69h2.643l-2.432 13.879c-.106.362-.106.845-.106 1.207 0 .241.106.603.317.603.634 0 2.009-1.69 2.96-2.655l.423.362c-.951 1.207-3.489 4.586-5.18 4.586-.846 0-1.374-.845-1.374-1.81 0-.724.211-1.569.317-2.414l.423-1.81zm-4.546 4.224c2.643 0 5.92-8.207 5.92-12.552 0-1.207-.317-2.655-1.586-2.655-3.277 0-5.709 8.207-5.709 12.189-.106 2.293.634 3.017 1.374 3.017z"/><path d="M131.949 32.435c-.951 1.207-3.489 4.586-5.18 4.586-.846 0-1.374-.845-1.374-1.81 0-.724.211-1.569.317-2.414l3.172-18.345c.106-.603.211-1.086.211-1.448 0-1.448-.951-1.81-2.537-1.81l.106-.603 5.603-.603-4.017 22.81c-.106.362-.106.845-.106 1.207 0 .241.106.603.317.603.634 0 2.009-1.69 2.96-2.655l.529.483z"/><path d="M141.992 32.435c-1.057 1.207-3.594 4.586-5.392 4.586-.951 0-1.48-.845-1.48-1.81 0-.724.106-1.569.317-2.414l2.22-12.672h-2.749l.211-1.207c3.066 0 4.652-1.81 5.497-5.672h.846l-1.057 5.672h4.44l-.211 1.207h-4.44l-2.22 12.672c-.106.362-.211.845-.211 1.207 0 .241.211.603.529.603.74 0 2.22-1.569 3.172-2.655l.529.483z"/><path d="M155.419 36.056c-.74.241-2.432.845-4.546.845-3.277 0-5.392-2.172-5.392-6.638 0-5.19 2.114-11.707 8.14-11.707 2.22 0 4.229 1.086 4.229 3.621 0 3.379-2.749 3.621-5.286 3.621h-3.594c-.211 1.207-.423 2.534-.423 3.862 0 3.138.951 5.793 5.074 5.793.74 0 1.48-.121 2.22-.483l-.423 1.086zm-3.594-11.345c1.374 0 3.277-.362 3.277-2.776 0-1.207-.846-2.052-2.114-2.052-2.537 0-3.7 3.138-4.017 4.828h2.854z"/><path d="M162.819 22.78c.106-.362.106-.845.106-1.207 0-.241-.211-.603-.317-.603-.634 0-2.114 1.69-2.96 2.655l-.423-.362c.951-1.207 3.489-4.586 5.18-4.586.846 0 1.269.845 1.269 1.81 0 .603-.106 1.569-.317 2.414l-1.057 6.034.106.121c1.163-3.379 4.229-10.258 7.612-10.258 1.163 0 1.903.966 1.903 2.534 0 .362-.106 1.448-.317 2.052l-1.903 9.655c-.106.362-.211.845-.211 1.207 0 .241.211.603.317.603.634 0 2.114-1.69 2.96-2.655l.423.362c-.951 1.207-3.489 4.586-5.18 4.586-.846 0-1.374-.845-1.374-1.81 0-.724.106-1.569.317-2.414l1.797-9.172c.106-.603.211-1.328.211-1.569 0-.603-.317-1.086-.74-1.086-2.643 0-6.766 11.345-7.4 15.689h-2.643l2.643-14z"/><path d="M198.234 30.866c-.846 1.569-2.749 6.034-5.709 6.034-2.643 0-3.277-2.414-3.277-4.586 0-3.862 3.277-13.758 8.14-13.758 1.797 0 2.326 1.207 2.537 2.052h.106l.211-1.69h2.643l-2.432 13.879c-.106.362-.106.845-.106 1.207 0 .241.106.603.317.603.634 0 2.009-1.69 2.96-2.655l.423.362c-.951 1.207-3.489 4.586-5.18 4.586-.846 0-1.374-.845-1.374-1.81 0-.724.211-1.569.317-2.414l.423-1.81zm-4.546 4.224c2.643 0 5.92-8.207 5.92-12.552 0-1.207-.317-2.655-1.586-2.655-3.277 0-5.709 8.207-5.709 12.189-.106 2.293.634 3.017 1.374 3.017z"/><path d="M213.458 32.435c-.951 1.207-3.489 4.586-5.18 4.586-.846 0-1.374-.845-1.374-1.81 0-.724.211-1.569.317-2.414l3.172-18.345c.106-.603.211-1.086.211-1.448 0-1.448-.951-1.81-2.537-1.81l.106-.603 5.603-.603-4.017 22.81c-.106.362-.106.845-.106 1.207 0 .241.106.603.317.603.634 0 2.009-1.69 2.96-2.655l.529.483z"/><path d="M225.827 23.384c0-1.81-.951-3.5-2.96-3.5-1.269 0-2.643.845-2.643 2.776 0 3.5 5.814 3.5 5.814 8.448 0 4.103-3.172 5.914-6.977 5.914-1.903 0-3.172-.483-3.806-.724l.423-4.224h.74c.106 1.569.423 3.621 3.066 3.621 1.797 0 3.7-1.328 3.7-3.5 0-3.621-5.814-3.621-5.814-8.207 0-3.621 2.854-5.31 5.92-5.31 1.691 0 2.96.362 3.7.724l-.529 3.983h-.634z"/><path d="M245.49 33.16c-.106.483-.211 1.086-.211 1.448 0 .362.106.603.423.603 1.586 0 7.083-5.914 7.083-11.103 0-1.931-.951-2.534-.951-3.741 0-.966.634-1.81 1.586-1.81 1.269 0 1.586 1.448 1.586 2.414 0 7-6.766 15.931-11.206 15.931-.634 0-1.163-.362-1.163-1.448 0-.483.106-1.207.211-1.81l1.903-10.983c.106-.362.106-.845.106-1.207 0-.241-.106-.603-.317-.603-.634 0-2.009 1.69-2.96 2.655l-.423-.362c1.163-1.448 3.383-4.586 4.969-4.586.951 0 1.48.966 1.48 2.172 0 .483-.317 1.931-.423 2.776l-1.691 9.655z"/><path d="M267.479 36.056c-.74.241-2.432.845-4.546.845-3.277 0-5.392-2.172-5.392-6.638 0-5.19 2.114-11.707 8.14-11.707 2.22 0 4.229 1.086 4.229 3.621 0 3.379-2.749 3.621-5.286 3.621h-3.594c-.211 1.207-.423 2.534-.423 3.862 0 3.138.951 5.793 5.074 5.793.74 0 1.48-.121 2.22-.483l-.423 1.086zm-3.594-11.345c1.374 0 3.277-.362 3.277-2.776 0-1.207-.846-2.052-2.114-2.052-2.537 0-3.7 3.138-4.017 4.828h2.854z"/><path d="M275.091 22.78c.106-.362.106-.845.106-1.207 0-.241-.106-.603-.317-.603-.634 0-2.009 1.69-2.96 2.655l-.423-.362c.951-1.207 3.489-4.586 5.18-4.586.846 0 1.374.845 1.374 1.81 0 .603-.106 1.569-.317 2.414l-.529 2.776.106.121c.634-1.69 2.432-6.879 5.074-6.879 1.057 0 1.586.845 1.586 1.81 0 1.086-.74 1.931-1.586 1.931-.74 0-1.057-.603-1.48-.603-.951 0-3.806 4.707-5.603 14.965h-2.643l2.432-14.241z"/><path d="M294.014 23.384c0-1.81-.951-3.5-2.96-3.5-1.269 0-2.643.845-2.643 2.776 0 3.5 5.814 3.5 5.814 8.448 0 4.103-3.172 5.914-6.977 5.914-1.903 0-3.172-.483-3.806-.724l.423-4.224h.74c.106 1.569.423 3.621 3.066 3.621 1.797 0 3.7-1.328 3.7-3.5 0-3.621-5.814-3.621-5.814-8.207 0-3.621 2.854-5.31 5.92-5.31 1.691 0 2.96.362 3.7.724l-.529 3.983h-.634z"/><path d="M295.072 44.021c2.537 0 3.172-1.086 3.594-3.741l3.066-17.62c.106-.362.106-.845.106-1.207 0-.241-.106-.603-.317-.603-.634 0-2.009 1.69-2.96 2.655l-.423-.362c.951-1.207 3.489-4.586 5.18-4.586.846 0 1.374.845 1.374 1.81 0 .603-.211 1.569-.317 2.414l-.317 1.69.106.121c.529-1.207 2.96-5.914 5.92-5.914 1.797 0 3.172 1.448 3.172 4.345 0 4.707-3.489 14-8.352 14-1.691 0-2.326-.724-2.643-1.69h-.106l-.846 5.069c-.106.362-.211 1.207-.211 1.569 0 1.931 1.269 2.172 2.537 2.172l-.106.603h-8.563l.106-.724zm9.303-8.327c3.277 0 5.814-7.724 5.814-12.431 0-1.207-.423-2.655-1.48-2.655-2.643 0-6.132 8.448-6.132 12.672 0 1.207.423 2.414 1.797 2.414z"/><path d="M319.598 22.78c.106-.362.106-.845.106-1.207 0-.241-.106-.603-.317-.603-.634 0-2.009 1.69-2.96 2.655l-.423-.362c.951-1.207 3.489-4.586 5.18-4.586.846 0 1.374.845 1.374 1.81 0 .603-.106 1.569-.317 2.414l-.529 2.776.106.121c.634-1.69 2.432-6.879 5.074-6.879 1.057 0 1.586.845 1.586 1.81 0 1.086-.74 1.931-1.586 1.931-.74 0-1.057-.603-1.48-.603-.951 0-3.806 4.707-5.603 14.965h-2.643l2.432-14.241z"/><path d="M338.944 36.056c-.74.241-2.432.845-4.546.845-3.277 0-5.392-2.172-5.392-6.638 0-5.19 2.114-11.707 8.14-11.707 2.22 0 4.229 1.086 4.229 3.621 0 3.379-2.749 3.621-5.286 3.621h-3.594c-.211 1.207-.423 2.534-.423 3.862 0 3.138.951 5.793 5.074 5.793.74 0 1.48-.121 2.22-.483l-.423 1.086zm-3.489-11.345c1.374 0 3.277-.362 3.277-2.776 0-1.207-.846-2.052-2.114-2.052-2.537 0-3.7 3.138-4.017 4.828h2.854z"/><path d="M353.322 36.056c-.529.241-2.22.966-4.334.966-3.489 0-5.814-2.293-5.814-6.517 0-5.431 2.537-11.827 8.14-11.827 2.537 0 4.546 1.81 4.546 3.862 0 .966-.634 1.931-1.691 1.931l-3.277-4.465c-3.066 0-4.757 5.672-4.757 9.655 0 4.586 2.009 5.914 4.969 5.914.846 0 1.691-.241 2.432-.483l-.211.966z"/><path d="M361.885 14.453c.106-.603.211-1.086.211-1.448 0-1.448-.951-1.81-2.537-1.81l.106-.603 5.603-.603-3.277 18.827.106.121c1.163-3.379 4.229-10.258 7.506-10.258 1.269 0 2.009.966 2.009 2.534 0 .362-.211 1.448-.317 2.052l-1.903 9.655c-.106.362-.106.845-.106 1.207 0 .241.106.603.317.603.634 0 2.009-1.69 2.96-2.655l.423.362c-.951 1.207-3.489 4.586-5.18 4.586-.846 0-1.269-.845-1.269-1.81 0-.724.106-1.569.317-2.414l1.797-9.172c.106-.603.211-1.328.211-1.569 0-.603-.211-1.086-.74-1.086-2.537 0-6.66 11.345-7.4 15.689h-2.643l3.806-22.207z"/><path d="M386.094 36.056c-.74.241-2.432.845-4.546.845-3.277 0-5.392-2.172-5.392-6.638 0-5.19 2.114-11.707 8.14-11.707 2.22 0 4.229 1.086 4.229 3.621 0 3.379-2.749 3.621-5.286 3.621h-3.594c-.211 1.207-.423 2.534-.423 3.862 0 3.138.951 5.793 5.074 5.793.74 0 1.48-.121 2.22-.483l-.423 1.086zm-3.594-11.345c1.374 0 3.277-.362 3.277-2.776 0-1.207-.846-2.052-2.114-2.052-2.537 0-3.7 3.138-4.017 4.828h2.854z"/><path d="M393.495 22.78c.106-.362.106-.845.106-1.207 0-.241-.211-.603-.317-.603-.634 0-2.114 1.69-2.96 2.655l-.423-.362c.951-1.207 3.489-4.586 5.18-4.586.846 0 1.269.845 1.269 1.81 0 .603-.106 1.569-.317 2.414l-1.057 6.034.106.121c1.163-3.379 4.229-10.258 7.612-10.258 1.163 0 1.903.966 1.903 2.534 0 .362-.106 1.448-.317 2.052l-1.903 9.655c-.106.362-.211.845-.211 1.207 0 .241.211.603.317.603.634 0 2.114-1.69 2.96-2.655l.423.362c-.951 1.207-3.489 4.586-5.18 4.586-.846 0-1.374-.845-1.374-1.81 0-.724.106-1.569.317-2.414l1.797-9.172c.106-.603.211-1.328.211-1.569 0-.603-.317-1.086-.74-1.086-2.643 0-6.766 11.345-7.4 15.689h-2.643l2.643-14z"/><path d="M408.612 34.487c0-1.328.951-2.414 2.114-2.414 1.163 0 2.114 1.086 2.114 2.414s-.951 2.414-2.114 2.414c-1.163.121-2.114-.966-2.114-2.414z"/></g></svg>