<svg version="1" xmlns="http://www.w3.org/2000/svg" viewBox="0 0 141.7 141.7" enable-background="new 0 0 141.7 141.7"><path fill-rule="evenodd" clip-rule="evenodd" d="M70.8 88.8h.2l35.6-35.6-4.1-4.1-31.6 31.6-31.6-31.6-4.1 4.1 35.6 35.6zm-38.4 4.4v-44.3c0-1.9 1.6-3.5 3.5-3.5h70.6c1.9 0 3.5 1.6 3.5 3.5v44.3c0 1.9-1.6 3.5-3.5 3.5h-70.6c-2 0-3.5-1.6-3.5-3.5z"/><path d="M71.2 134.9c-35.2 0-63.9-28.7-63.9-63.9s28.7-63.9 63.9-63.9 63.9 28.7 63.9 63.9c0 35.3-28.7 63.9-63.9 63.9zm0-118.8c-30.3 0-54.9 24.7-54.9 55s24.6 54.9 54.9 54.9 54.9-24.6 54.9-54.9c0-30.4-24.6-55-54.9-55z"/></svg>