<svg version="1" xmlns="http://www.w3.org/2000/svg" viewBox="0 0 141.7 141.7" enable-background="new 0 0 141.7 141.7"><path fill-rule="evenodd" clip-rule="evenodd" d="M96.3 132.7c-.4.2-.5.2 0 0zm-92.2-61.7c0-36.8 29.9-66.7 66.8-66.7 36.8 0 66.7 29.9 66.7 66.7 0 18.9-7.9 36-20.6 48.1-.9 1-2.1 1.6-3.6 1.6-2.6 0-4.7-2.1-4.7-4.7 0-1.4.6-2.6 1.5-3.5 11-10.4 17.9-25.2 17.9-41.6 0-31.6-25.7-57.3-57.3-57.3-31.6 0-57.3 25.7-57.3 57.3 0 31.6 25.7 57.3 57.3 57.3 2.6 0 5.2-.2 7.8-.5-17.6-9-30.2-26.4-32.5-46.9-.3-2.3-.4-4.6-.4-6.9 0-20 9.8-37.7 24.9-48.7l11.1 8.9 1.8 1.5-18.8 22.7-5.1-4.2c-3.2 7.4-4.7 15.6-4 24.1.5 5.7 1.9 11 4 16l5-4.2 18.8 22.5-5 4c4.8 3.1 10.1 5.4 16 6.9l1.2.2v.1c2.2.3 4 2.3 4 4.6 0 2.1-1.4 3.9-3.3 4.5-.4.2-16.4 5-25.4 5-36.9 0-66.8-29.9-66.8-66.8z"/></svg>