<svg xmlns="http://www.w3.org/2000/svg" width="269" height="82" viewBox="0, 0, 269, 82"><g><path d="M-.03 55.596h270.06" stroke="#004F9F" stroke-width="1.5" stroke-miterlimit="3.864" fill="none"/><path d="M70.397 80.678h11.56v-1.716h-9.248l8.875-14.991v-1.79h-10.739v1.716h8.427l-8.875 14.991v1.79zM91.951 80.678h1.79v-8.95c0-1.641-.298-4.102-4.326-4.102-3.505 0-4.549 1.939-4.624 3.58h2.014c.149-.97.522-2.014 2.61-2.014.97 0 2.014.373 2.312 1.79.075.447.075 1.79.075 2.461-.448.075-.82.075-1.268.075-2.237 0-6.116.969-6.116 3.952 0 2.312 1.343 3.58 3.431 3.58 2.312 0 3.58-1.342 3.953-2.013h.074v1.641h.075zm0-5.743c0 1.566-.149 1.79-.447 2.61-.522 1.268-1.79 2.014-2.984 2.014-.969 0-1.79-.671-1.79-1.865 0-2.163 2.835-2.685 4.177-2.685h1.044v-.074zM98.813 80.678h1.79v-5.296c0-2.312 1.193-5.966 3.654-5.966 1.865 0 1.865 1.939 1.865 4.176v7.086h1.79v-9.099c0-2.089-1.119-3.953-3.282-3.953-2.834 0-3.655 2.237-4.027 3.281h-.075v-8.726h-1.79v18.497h.075zM113.058 80.678h1.79v-5.296c0-2.312 1.193-5.966 3.654-5.966 1.865 0 1.865 1.939 1.865 4.176v7.086h1.79v-9.099c0-2.089-1.119-3.953-3.282-3.953-2.834 0-3.654 2.237-4.027 3.281h-.075v-2.983h-1.79v12.754h.075zM133.344 79.186c-.373.149-.671.224-1.268.224-1.865 0-2.088-1.343-2.088-2.163v-7.831h3.431v-1.566h-3.431v-4.103l-1.79 1.119v2.984h-2.088v1.566h2.088v8.278c0 2.312.97 3.282 3.58 3.282.522 0 1.044-.075 1.641-.149v-1.641h-.075zM145.277 79.111c-.597.149-1.119.373-2.536.373-3.654 0-4.549-3.654-4.549-5.593v-.746h7.384v-.597c0-2.759-1.418-4.848-4.476-4.848-3.43 0-4.997 2.461-4.997 6.265 0 4.699 2.313 7.085 6.265 7.085 1.194 0 2.163-.149 2.909-.372v-1.567zm-6.861-7.532c.149-.896.745-2.387 2.684-2.387 1.865 0 2.462 1.566 2.462 2.387h-5.146zM158.031 79.186c-.672.224-1.641.298-2.089.298-4.251 0-5.071-3.431-5.071-5.817 0-1.939.746-4.475 3.057-4.475 1.716 0 2.313 1.268 2.313 2.685h2.163c0-2.014-.97-4.177-4.401-4.177-3.654 0-5.221 2.536-5.221 6.414 0 4.624 2.462 7.011 6.564 7.011 1.193 0 1.864-.075 2.685-.373v-1.566zM161.984 80.678h1.789v-5.296c0-2.312 1.194-5.966 3.655-5.966 1.865 0 1.865 1.939 1.865 4.176v7.086h1.789v-9.099c0-2.089-1.118-3.953-3.281-3.953-2.834 0-3.655 2.237-4.028 3.281h-.074v-8.726h-1.79v18.497h.075zM176.229 80.678h1.789v-5.296c0-2.312 1.194-5.966 3.655-5.966 1.864 0 1.864 1.939 1.864 4.176v7.086h1.79v-9.099c0-2.089-1.118-3.953-3.281-3.953-2.834 0-3.654 2.237-4.028 3.281h-.074v-2.983h-1.715v12.754zM190.623 80.678h1.79v-12.754h-1.79v12.754zm-.299-16.11h2.387v-2.387h-2.387v2.387zM197.708 80.678h1.79v-6.787h.075l4.997 6.787h2.237l-5.146-7.086 4.549-5.668h-2.162l-4.475 5.37h-.075v-11.113h-1.79v18.497z"/><path d="M253.048 23.1h5.444v22.226h-5.444v-22.226z" fill="#004F9F"/><path d="M10.209 37.942h2.685v-14.021h.15l10.516 14.021h3.505l-10.74-14.096 9.547-11.486h-3.431l-9.547 11.188v-22.673h-2.685v37.067zM40.564 38.464c7.235 0 10.442-5.892 10.442-13.35 0-7.458-3.133-13.425-10.442-13.425-7.234 0-10.516 5.967-10.516 13.425 0 7.458 3.282 13.35 10.516 13.35zm-7.234-12.977c0-5.967 1.641-11.187 7.16-11.187s7.383 5.22 7.383 11.187-1.864 10.441-7.383 10.441-7.16-4.474-7.16-10.441zM57.867 37.942h2.685v-9.77c0-7.011 3.506-13.798 8.13-13.798 3.356 0 3.356 4.848 3.356 7.458v16.11h2.685v-10.292c0-6.712 3.132-13.35 7.309-13.35 4.176 0 4.102 4.848 4.102 7.458v16.184h2.685v-18.869c0-6.414-3.804-7.234-6.638-7.234-4.55 0-6.563 3.952-7.235 6.264h-.149c0-2.237-1.118-6.264-6.041-6.264-5.892 0-7.383 4.4-8.129 6.861h-.075v-6.265h-2.685v25.507zM97.619 49.428h2.685v-16.184h.075c.671 2.162 2.386 5.295 7.383 5.295 3.953 0 8.801-2.611 8.801-13.649 0-11.038-4.922-13.126-8.801-13.126-4.997 0-6.637 3.132-7.383 5.295h-.075v-4.699h-2.685v37.068zm2.834-24.538c0-4.474 2.238-10.59 7.011-10.59 3.953 0 5.967 3.281 5.967 10.441s-2.014 11.113-5.967 11.113c-5.966.074-7.011-7.831-7.011-10.964zM139.087 35.257c-1.268.448-3.207.671-4.699.671-9.77 0-9.845-9.099-9.845-11.038 0-.895 0-1.715.075-2.61h14.991v-1.342c0-4.326-2.238-9.174-8.502-9.174-6.265 0-9.696 4.251-9.696 12.679 0 8.95 4.326 14.096 12.157 14.096 2.163 0 4.027-.299 5.593-.672v-2.61h-.074zm-14.096-15.587c.298-1.641 1.342-5.37 6.041-5.37 4.326 0 5.37 3.803 5.37 5.37h-11.411zM194.949 33.84c-1.119.373-2.611.895-4.848.895-7.011 0-9.398-6.712-9.398-11.486h14.842v-1.267c0-6.042-2.983-10.293-9.248-10.293-3.282 0-10.441 1.194-10.441 12.157 0 10.069 4.922 14.618 12.678 14.618 2.76 0 4.326-.373 6.415-.895v-3.729zm-14.022-13.798c0-1.118 1.119-4.474 5.072-4.474 3.729 0 4.698 2.908 4.698 4.474h-9.77zM201.512 37.942h4.848v-10.814c0-5.072 2.759-10.442 6.787-10.442 3.505 0 3.505 2.611 3.505 7.384v13.872h4.848v-17.75c0-3.133-.97-8.428-6.862-8.428-5.221 0-7.234 3.953-8.129 6.041h-.075v-5.444h-4.848v25.581h-.074zM242.979 34.362c-.671.224-1.715.373-2.61.373-3.729 0-4.102-2.685-4.102-4.997v-13.648h7.085v-3.73h-7.085v-9.024l-4.848 2.983v6.041h-4.55v3.73h4.55v16.184c0 3.505 1.492 6.265 7.682 6.265 1.268 0 2.61-.075 3.804-.373v-3.804h.074zM155.718.875h-9.471v15.14h5.37v-10.889h3.132c6.787 0 10.74 2.387 10.74 14.245 0 11.635-3.953 14.171-10.665 14.245h-.97v4.326h1.939c8.577 0 15.588-3.281 15.588-18.645-.075-12.232-4.401-18.422-15.663-18.422z"/></g></svg>