<?xml version="1.0" encoding="utf-8"?>
<!-- Generator: Adobe Illustrator 17.1.0, SVG Export Plug-In . SVG Version: 6.00 Build 0)  -->
<!DOCTYPE svg PUBLIC "-//W3C//DTD SVG 1.0//EN" "http://www.w3.org/TR/2001/REC-SVG-20010904/DTD/svg10.dtd">
<svg version="1.0" id="Ebene_1" xmlns="http://www.w3.org/2000/svg" xmlns:xlink="http://www.w3.org/1999/xlink" x="0px" y="0px"
	 viewBox="0 0 413 45.1" enable-background="new 0 0 413 45.1" xml:space="preserve">
<g>
	<path fill="#FFFFFF" d="M13,30.2c2.4,0,3-0.9,3.4-3l2.8-13.9c0.1-0.4,0.2-1,0.2-1.3c0-1.4-1.2-1.6-2.4-1.6l0.1-0.6h6.3l2.8,18h0.1
		l9.9-18h6.2l-0.1,0.6c-2.4,0-3,0.9-3.4,3l-2.8,13.9c-0.1,0.4-0.2,1-0.2,1.3c0,1.4,1.2,1.6,2.4,1.6l-0.1,0.6H30l0.1-0.6
		c2.3,0,2.9-0.9,3.4-3l3.1-15.6l-0.1-0.1L26,30.9h-1.6l-3-19.2h-0.1l-3.1,15.6c-0.1,0.4-0.2,1-0.2,1.3c0,1.4,1.2,1.6,2.5,1.6
		l-0.1,0.6h-7.5L13,30.2z"/>
	<path fill="#FFFFFF" d="M51.6,30.4c-0.7,0.2-2.3,0.7-4.3,0.7c-3.1,0-5.1-1.8-5.1-5.5c0-4.3,2-9.7,7.7-9.7c2.1,0,4,0.9,4,3
		c0,2.8-2.6,3-5,3h-3.4c-0.2,1-0.4,2.1-0.4,3.2c0,2.6,0.9,4.8,4.8,4.8c0.7,0,1.4-0.1,2.1-0.4L51.6,30.4z M48.2,21
		c1.3,0,3.1-0.3,3.1-2.3c0-1-0.8-1.7-2-1.7c-2.4,0-3.5,2.6-3.8,4H48.2z"/>
	<path fill="#FFFFFF" d="M59.6,12.5c0.1-0.5,0.2-0.9,0.2-1.2c0-1.2-0.9-1.5-2.4-1.5l0.1-0.5l5.3-0.5l-3.1,15.6l0.1,0.1
		c1.1-2.8,4-8.5,7.1-8.5c1.2,0,1.9,0.8,1.9,2.1c0,0.3-0.2,1.2-0.3,1.7l-1.8,8c-0.1,0.3-0.1,0.7-0.1,1c0,0.2,0.1,0.5,0.3,0.5
		c0.6,0,1.9-1.4,2.8-2.2l0.4,0.3c-0.9,1-3.3,3.8-4.9,3.8c-0.8,0-1.2-0.7-1.2-1.5c0-0.6,0.1-1.3,0.3-2l1.7-7.6
		c0.1-0.5,0.2-1.1,0.2-1.3c0-0.5-0.2-0.9-0.7-0.9c-2.4,0-6.3,9.4-7,13h-2.5L59.6,12.5z"/>
	<path fill="#FFFFFF" d="M75.9,19.4c0.1-0.3,0.1-0.7,0.1-1c0-0.2-0.1-0.5-0.3-0.5c-0.6,0-1.9,1.4-2.8,2.2l-0.4-0.3
		c0.9-1,3.3-3.8,4.9-3.8c0.8,0,1.3,0.7,1.3,1.5c0,0.5-0.1,1.3-0.3,2l-0.5,2.3l0.1,0.1c0.6-1.4,2.3-5.7,4.8-5.7c1,0,1.5,0.7,1.5,1.5
		c0,0.9-0.7,1.6-1.5,1.6c-0.7,0-1-0.5-1.4-0.5c-0.9,0-3.6,3.9-5.3,12.4h-2.5L75.9,19.4z"/>
	<path fill="#FFFFFF" d="M99.8,12.5c0.1-0.5,0.2-0.9,0.2-1.2c0-1.2-0.9-1.5-2.4-1.5l0.1-0.5l5.3-0.5l-3.1,15.6l0.1,0.1
		c1.1-2.8,4-8.5,7.1-8.5c1.2,0,1.9,0.8,1.9,2.1c0,0.3-0.2,1.2-0.3,1.7l-1.8,8c-0.1,0.3-0.1,0.7-0.1,1c0,0.2,0.1,0.5,0.3,0.5
		c0.6,0,1.9-1.4,2.8-2.2l0.4,0.3c-0.9,1-3.3,3.8-4.9,3.8c-0.8,0-1.2-0.7-1.2-1.5c0-0.6,0.1-1.3,0.3-2l1.7-7.6
		c0.1-0.5,0.2-1.1,0.2-1.3c0-0.5-0.2-0.9-0.7-0.9c-2.4,0-6.3,9.4-7,13h-2.5L99.8,12.5z"/>
	<path fill="#FFFFFF" d="M121.2,26.1L121.2,26.1c-0.8,1.3-2.6,5-5.4,5c-2.5,0-3.1-2-3.1-3.8c0-3.2,3.1-11.4,7.7-11.4
		c1.7,0,2.2,1,2.4,1.7h0.1l0.2-1.4h2.5l-2.3,11.5c-0.1,0.3-0.1,0.7-0.1,1c0,0.2,0.1,0.5,0.3,0.5c0.6,0,1.9-1.4,2.8-2.2l0.4,0.3
		c-0.9,1-3.3,3.8-4.9,3.8c-0.8,0-1.3-0.7-1.3-1.5c0-0.6,0.2-1.3,0.3-2L121.2,26.1z M116.9,29.6c2.5,0,5.6-6.8,5.6-10.4
		c0-1-0.3-2.2-1.5-2.2c-3.1,0-5.4,6.8-5.4,10.1C115.5,29,116.2,29.6,116.9,29.6z"/>
	<path fill="#FFFFFF" d="M135.6,27.4c-0.9,1-3.3,3.8-4.9,3.8c-0.8,0-1.3-0.7-1.3-1.5c0-0.6,0.2-1.3,0.3-2l3-15.2
		c0.1-0.5,0.2-0.9,0.2-1.2c0-1.2-0.9-1.5-2.4-1.5l0.1-0.5l5.3-0.5l-3.8,18.9c-0.1,0.3-0.1,0.7-0.1,1c0,0.2,0.1,0.5,0.3,0.5
		c0.6,0,1.9-1.4,2.8-2.2L135.6,27.4z"/>
	<path fill="#FFFFFF" d="M145.1,27.4c-1,1-3.4,3.8-5.1,3.8c-0.9,0-1.4-0.7-1.4-1.5c0-0.6,0.1-1.3,0.3-2l2.1-10.5h-2.6l0.2-1
		c2.9,0,4.4-1.5,5.2-4.7h0.8l-1,4.7h4.2l-0.2,1h-4.2l-2.1,10.5c-0.1,0.3-0.2,0.7-0.2,1c0,0.2,0.2,0.5,0.5,0.5c0.7,0,2.1-1.3,3-2.2
		L145.1,27.4z"/>
	<path fill="#FFFFFF" d="M157.8,30.4c-0.7,0.2-2.3,0.7-4.3,0.7c-3.1,0-5.1-1.8-5.1-5.5c0-4.3,2-9.7,7.7-9.7c2.1,0,4,0.9,4,3
		c0,2.8-2.6,3-5,3h-3.4c-0.2,1-0.4,2.1-0.4,3.2c0,2.6,0.9,4.8,4.8,4.8c0.7,0,1.4-0.1,2.1-0.4L157.8,30.4z M154.4,21
		c1.3,0,3.1-0.3,3.1-2.3c0-1-0.8-1.7-2-1.7c-2.4,0-3.5,2.6-3.8,4H154.4z"/>
	<path fill="#FFFFFF" d="M164.8,19.4c0.1-0.3,0.1-0.7,0.1-1c0-0.2-0.2-0.5-0.3-0.5c-0.6,0-2,1.4-2.8,2.2l-0.4-0.3
		c0.9-1,3.3-3.8,4.9-3.8c0.8,0,1.2,0.7,1.2,1.5c0,0.5-0.1,1.3-0.3,2l-1,5l0.1,0.1c1.1-2.8,4-8.5,7.2-8.5c1.1,0,1.8,0.8,1.8,2.1
		c0,0.3-0.1,1.2-0.3,1.7l-1.8,8c-0.1,0.3-0.2,0.7-0.2,1c0,0.2,0.2,0.5,0.3,0.5c0.6,0,2-1.4,2.8-2.2l0.4,0.3c-0.9,1-3.3,3.8-4.9,3.8
		c-0.8,0-1.3-0.7-1.3-1.5c0-0.6,0.1-1.3,0.3-2l1.7-7.6c0.1-0.5,0.2-1.1,0.2-1.3c0-0.5-0.3-0.9-0.7-0.9c-2.5,0-6.4,9.4-7,13h-2.5
		L164.8,19.4z"/>
	<path fill="#FFFFFF" d="M198.3,26.1L198.3,26.1c-0.8,1.3-2.6,5-5.4,5c-2.5,0-3.1-2-3.1-3.8c0-3.2,3.1-11.4,7.7-11.4
		c1.7,0,2.2,1,2.4,1.7h0.1l0.2-1.4h2.5l-2.3,11.5c-0.1,0.3-0.1,0.7-0.1,1c0,0.2,0.1,0.5,0.3,0.5c0.6,0,1.9-1.4,2.8-2.2l0.4,0.3
		c-0.9,1-3.3,3.8-4.9,3.8c-0.8,0-1.3-0.7-1.3-1.5c0-0.6,0.2-1.3,0.3-2L198.3,26.1z M194,29.6c2.5,0,5.6-6.8,5.6-10.4
		c0-1-0.3-2.2-1.5-2.2c-3.1,0-5.4,6.8-5.4,10.1C192.6,29,193.3,29.6,194,29.6z"/>
	<path fill="#FFFFFF" d="M212.7,27.4c-0.9,1-3.3,3.8-4.9,3.8c-0.8,0-1.3-0.7-1.3-1.5c0-0.6,0.2-1.3,0.3-2l3-15.2
		c0.1-0.5,0.2-0.9,0.2-1.2c0-1.2-0.9-1.5-2.4-1.5l0.1-0.5l5.3-0.5l-3.8,18.9c-0.1,0.3-0.1,0.7-0.1,1c0,0.2,0.1,0.5,0.3,0.5
		c0.6,0,1.9-1.4,2.8-2.2L212.7,27.4z"/>
	<path fill="#FFFFFF" d="M224.4,19.9c0-1.5-0.9-2.9-2.8-2.9c-1.2,0-2.5,0.7-2.5,2.3c0,2.9,5.5,2.9,5.5,7c0,3.4-3,4.9-6.6,4.9
		c-1.8,0-3-0.4-3.6-0.6l0.4-3.5h0.7c0.1,1.3,0.4,3,2.9,3c1.7,0,3.5-1.1,3.5-2.9c0-3-5.5-3-5.5-6.8c0-3,2.7-4.4,5.6-4.4
		c1.6,0,2.8,0.3,3.5,0.6l-0.5,3.3H224.4z"/>
	<path fill="#FFFFFF" d="M243,28c-0.1,0.4-0.2,0.9-0.2,1.2s0.1,0.5,0.4,0.5c1.5,0,6.7-4.9,6.7-9.2c0-1.6-0.9-2.1-0.9-3.1
		c0-0.8,0.6-1.5,1.5-1.5c1.2,0,1.5,1.2,1.5,2c0,5.8-6.4,13.2-10.6,13.2c-0.6,0-1.1-0.3-1.1-1.2c0-0.4,0.1-1,0.2-1.5l1.8-9.1
		c0.1-0.3,0.1-0.7,0.1-1c0-0.2-0.1-0.5-0.3-0.5c-0.6,0-1.9,1.4-2.8,2.2l-0.4-0.3c1.1-1.2,3.2-3.8,4.7-3.8c0.9,0,1.4,0.8,1.4,1.8
		c0,0.4-0.3,1.6-0.4,2.3L243,28z"/>
	<path fill="#FFFFFF" d="M263.8,30.4c-0.7,0.2-2.3,0.7-4.3,0.7c-3.1,0-5.1-1.8-5.1-5.5c0-4.3,2-9.7,7.7-9.7c2.1,0,4,0.9,4,3
		c0,2.8-2.6,3-5,3h-3.4c-0.2,1-0.4,2.1-0.4,3.2c0,2.6,0.9,4.8,4.8,4.8c0.7,0,1.4-0.1,2.1-0.4L263.8,30.4z M260.4,21
		c1.3,0,3.1-0.3,3.1-2.3c0-1-0.8-1.7-2-1.7c-2.4,0-3.5,2.6-3.8,4H260.4z"/>
	<path fill="#FFFFFF" d="M271,19.4c0.1-0.3,0.1-0.7,0.1-1c0-0.2-0.1-0.5-0.3-0.5c-0.6,0-1.9,1.4-2.8,2.2l-0.4-0.3
		c0.9-1,3.3-3.8,4.9-3.8c0.8,0,1.3,0.7,1.3,1.5c0,0.5-0.1,1.3-0.3,2l-0.5,2.3l0.1,0.1c0.6-1.4,2.3-5.7,4.8-5.7c1,0,1.5,0.7,1.5,1.5
		c0,0.9-0.7,1.6-1.5,1.6c-0.7,0-1-0.5-1.4-0.5c-0.9,0-3.6,3.9-5.3,12.4h-2.5L271,19.4z"/>
	<path fill="#FFFFFF" d="M288.9,19.9c0-1.5-0.9-2.9-2.8-2.9c-1.2,0-2.5,0.7-2.5,2.3c0,2.9,5.5,2.9,5.5,7c0,3.4-3,4.9-6.6,4.9
		c-1.8,0-3-0.4-3.6-0.6l0.4-3.5h0.7c0.1,1.3,0.4,3,2.9,3c1.7,0,3.5-1.1,3.5-2.9c0-3-5.5-3-5.5-6.8c0-3,2.7-4.4,5.6-4.4
		c1.6,0,2.8,0.3,3.5,0.6l-0.5,3.3H288.9z"/>
	<path fill="#FFFFFF" d="M289.9,37c2.4,0,3-0.9,3.4-3.1l2.9-14.6c0.1-0.3,0.1-0.7,0.1-1c0-0.2-0.1-0.5-0.3-0.5
		c-0.6,0-1.9,1.4-2.8,2.2l-0.4-0.3c0.9-1,3.3-3.8,4.9-3.8c0.8,0,1.3,0.7,1.3,1.5c0,0.5-0.2,1.3-0.3,2l-0.3,1.4l0.1,0.1
		c0.5-1,2.8-4.9,5.6-4.9c1.7,0,3,1.2,3,3.6c0,3.9-3.3,11.6-7.9,11.6c-1.6,0-2.2-0.6-2.5-1.4h-0.1l-0.8,4.2c-0.1,0.3-0.2,1-0.2,1.3
		c0,1.6,1.2,1.8,2.4,1.8l-0.1,0.5h-8.1L289.9,37z M298.7,30.1c3.1,0,5.5-6.4,5.5-10.3c0-1-0.4-2.2-1.4-2.2c-2.5,0-5.8,7-5.8,10.5
		C297,29.1,297.4,30.1,298.7,30.1z"/>
	<path fill="#FFFFFF" d="M313.1,19.4c0.1-0.3,0.1-0.7,0.1-1c0-0.2-0.1-0.5-0.3-0.5c-0.6,0-1.9,1.4-2.8,2.2l-0.4-0.3
		c0.9-1,3.3-3.8,4.9-3.8c0.8,0,1.3,0.7,1.3,1.5c0,0.5-0.1,1.3-0.3,2l-0.5,2.3l0.1,0.1c0.6-1.4,2.3-5.7,4.8-5.7c1,0,1.5,0.7,1.5,1.5
		c0,0.9-0.7,1.6-1.5,1.6c-0.7,0-1-0.5-1.4-0.5c-0.9,0-3.6,3.9-5.3,12.4h-2.5L313.1,19.4z"/>
	<path fill="#FFFFFF" d="M331.4,30.4c-0.7,0.2-2.3,0.7-4.3,0.7c-3.1,0-5.1-1.8-5.1-5.5c0-4.3,2-9.7,7.7-9.7c2.1,0,4,0.9,4,3
		c0,2.8-2.6,3-5,3h-3.4c-0.2,1-0.4,2.1-0.4,3.2c0,2.6,0.9,4.8,4.8,4.8c0.7,0,1.4-0.1,2.1-0.4L331.4,30.4z M328.1,21
		c1.3,0,3.1-0.3,3.1-2.3c0-1-0.8-1.7-2-1.7c-2.4,0-3.5,2.6-3.8,4H328.1z"/>
	<path fill="#FFFFFF" d="M345,30.4c-0.5,0.2-2.1,0.8-4.1,0.8c-3.3,0-5.5-1.9-5.5-5.4c0-4.5,2.4-9.8,7.7-9.8c2.4,0,4.3,1.5,4.3,3.2
		c0,0.8-0.6,1.6-1.6,1.6c-2.6,0-0.5-3.7-3.1-3.7c-2.9,0-4.5,4.7-4.5,8c0,3.8,1.9,4.9,4.7,4.9c0.8,0,1.6-0.2,2.3-0.4L345,30.4z"/>
	<path fill="#FFFFFF" d="M353.1,12.5c0.1-0.5,0.2-0.9,0.2-1.2c0-1.2-0.9-1.5-2.4-1.5l0.1-0.5l5.3-0.5l-3.1,15.6l0.1,0.1
		c1.1-2.8,4-8.5,7.1-8.5c1.2,0,1.9,0.8,1.9,2.1c0,0.3-0.2,1.2-0.3,1.7l-1.8,8c-0.1,0.3-0.1,0.7-0.1,1c0,0.2,0.1,0.5,0.3,0.5
		c0.6,0,1.9-1.4,2.8-2.2l0.4,0.3c-0.9,1-3.3,3.8-4.9,3.8c-0.8,0-1.2-0.7-1.2-1.5c0-0.6,0.1-1.3,0.3-2l1.7-7.6
		c0.1-0.5,0.2-1.1,0.2-1.3c0-0.5-0.2-0.9-0.7-0.9c-2.4,0-6.3,9.4-7,13h-2.5L353.1,12.5z"/>
	<path fill="#FFFFFF" d="M376,30.4c-0.7,0.2-2.3,0.7-4.3,0.7c-3.1,0-5.1-1.8-5.1-5.5c0-4.3,2-9.7,7.7-9.7c2.1,0,4,0.9,4,3
		c0,2.8-2.6,3-5,3h-3.4c-0.2,1-0.4,2.1-0.4,3.2c0,2.6,0.9,4.8,4.8,4.8c0.7,0,1.4-0.1,2.1-0.4L376,30.4z M372.6,21
		c1.3,0,3.1-0.3,3.1-2.3c0-1-0.8-1.7-2-1.7c-2.4,0-3.5,2.6-3.8,4H372.6z"/>
	<path fill="#FFFFFF" d="M383,19.4c0.1-0.3,0.1-0.7,0.1-1c0-0.2-0.2-0.5-0.3-0.5c-0.6,0-2,1.4-2.8,2.2l-0.4-0.3
		c0.9-1,3.3-3.8,4.9-3.8c0.8,0,1.2,0.7,1.2,1.5c0,0.5-0.1,1.3-0.3,2l-1,5l0.1,0.1c1.1-2.8,4-8.5,7.2-8.5c1.1,0,1.8,0.8,1.8,2.1
		c0,0.3-0.1,1.2-0.3,1.7l-1.8,8c-0.1,0.3-0.2,0.7-0.2,1c0,0.2,0.2,0.5,0.3,0.5c0.6,0,2-1.4,2.8-2.2l0.4,0.3c-0.9,1-3.3,3.8-4.9,3.8
		c-0.8,0-1.3-0.7-1.3-1.5c0-0.6,0.1-1.3,0.3-2l1.7-7.6c0.1-0.5,0.2-1.1,0.2-1.3c0-0.5-0.3-0.9-0.7-0.9c-2.5,0-6.4,9.4-7,13h-2.5
		L383,19.4z"/>
	<path fill="#FFFFFF" d="M397.3,29.1c0-1.1,0.9-2,2-2c1.1,0,2,0.9,2,2c0,1.1-0.9,2-2,2C398.2,31.2,397.3,30.3,397.3,29.1z"/>
</g>
</svg>
