<?xml version="1.0" encoding="utf-8"?>
<!-- Generator: Adobe Illustrator 17.1.0, SVG Export Plug-In . SVG Version: 6.00 Build 0)  -->
<!DOCTYPE svg PUBLIC "-//W3C//DTD SVG 1.0//EN" "http://www.w3.org/TR/2001/REC-SVG-20010904/DTD/svg10.dtd">
<svg version="1.0" id="Ebene_1" xmlns="http://www.w3.org/2000/svg" xmlns:xlink="http://www.w3.org/1999/xlink" x="0px" y="0px"
	 viewBox="0 0 141.7 141.7" enable-background="new 0 0 141.7 141.7" xml:space="preserve">
<path fill-rule="evenodd" clip-rule="evenodd" fill="#FFFFFF" d="M96.3,132.7L96.3,132.7C95.9,132.9,95.8,132.9,96.3,132.7z M4.1,71
	C4.1,34.2,34,4.3,70.9,4.3c36.8,0,66.7,29.9,66.7,66.7c0,18.9-7.9,36-20.6,48.1l0,0c-0.9,1-2.1,1.6-3.6,1.6c-2.6,0-4.7-2.1-4.7-4.7
	c0-1.4,0.6-2.6,1.5-3.5c11-10.4,17.9-25.2,17.9-41.6c0-31.6-25.7-57.3-57.3-57.3c-31.6,0-57.3,25.7-57.3,57.3
	c0,31.6,25.7,57.3,57.3,57.3c2.6,0,5.2-0.2,7.8-0.5c-17.6-9-30.2-26.4-32.5-46.9h0c-0.3-2.3-0.4-4.6-0.4-6.9
	c0-20,9.8-37.7,24.9-48.7l11.1,8.9l1.8,1.5L64.7,58.3l-5.1-4.2c-3.2,7.4-4.7,15.6-4,24.1c0.5,5.7,1.9,11,4,16l5-4.2l18.8,22.5l-5,4
	c4.8,3.1,10.1,5.4,16,6.9l1.2,0.2l0,0.1c2.2,0.3,4,2.3,4,4.6c0,2.1-1.4,3.9-3.3,4.5v0c-0.4,0.2-16.4,5-25.4,5
	C34,137.8,4.1,107.9,4.1,71z"/>
</svg>
